{"title":"My Friends Tigger and Pooh Super Sleuth Christmas Movie","uid":9365270,"size":502343195,"categoryP":"video","categoryS":"movies","magnet":"?xt=urn:btih:07ba2eb44680034647bcf7260c884b107ca35e30&amp;dn=My+Friends+Tigger+and+Pooh+Super+Sleuth+Christmas+Movie&amp;tr=udp%3A%2F%2Ftracker.openbittorrent.com%3A80&amp;tr=udp%3A%2F%2Fopen.demonii.com%3A1337&amp;tr=udp%3A%2F%2Ftracker.coppersurfer.tk%3A6969&amp;tr=udp%3A%2F%2Fexodus.desync.com%3A6969","seeders":4,"leechers":0,"uploader":"7","files":-1,"time":1387399302,"description":"General\nComplete name                            : My Friends Tigger and Pooh Super Sleuth Christmas Movie 100 Acre Wood Downhill Challenge (2007).AVI\nFormat                                   : AVI\nFormat/Info                              : Audio Video Interleave\nFile size                                : 479 MiB\nDuration                                 : 44mn 16s\nOverall bit rate                         : 1 513 Kbps\n\nVideo\nID                                       : 0\nFormat                                   : MPEG-4 Visual\nFormat profile                           : Simple@L3\nFormat settings, BVOP                    : No\nFormat settings, QPel                    : No\nFormat settings, GMC                     : No warppoints\nFormat settings, Matrix                  : Default (H.263)\nCodec ID                                 : XVID\nCodec ID/Hint                            : XviD\nDuration                                 : 44mn 15s\nBit rate                                 : 1 378 Kbps\nWidth                                    : 720 pixels\nHeight                                   : 480 pixels\nDisplay aspect ratio                     : 3:2\nFrame rate                               : 23.976 fps\nStandard                                 : NTSC\nColor space                              : YUV\nChroma subsampling                       : 4:2:0\nBit depth                                : 8 bits\nScan type                                : Progressive\nCompression mode                         : Lossy\nBits/(Pixel*Frame)                       : 0.166\nStream size                              : 436 MiB (91%)\nWriting library                          : ZJMedia MPEG Encoder\n\nAudio\nID                                       : 1\nFormat                                   : MPEG Audio\nFormat version                           : Version 1\nFormat profile                           : Layer 3\nMode                                     : Joint stereo\nMode extension                           : MS Stereo\nCodec ID                                 : 55\nCodec ID/Hint                            : MP3\nDuration                                 : 44mn 16s\nBit rate mode                            : Constant\nBit rate                                 : 128 Kbps\nChannel(s)                               : 2 channels\nSampling rate                            : 44.1 KHz\nCompression mode                         : Lossy\nStream size                              : 40.5 MiB (8%)\nAlignment                                : Split accross interleaves\nInterleave, duration                     : 1000 ms (23.97 video frames)\nInterleave, preload duration             : 750 ms\n\n &lt;a href=&quot;\nhttp://lookpic.com/O/i2/703/4CiCWptb.jpeg&quot; rel=&quot;nofollow&quot; target=&quot;_NEW&quot;&gt;\nhttp://lookpic.com/O/i2/703/4CiCWptb.jpeg&lt;/a&gt;","torrent":{"xt":"urn:btih:07ba2eb44680034647bcf7260c884b107ca35e30","amp;dn":"My+Friends+Tigger+and+Pooh+Super+Sleuth+Christmas+Movie","amp;tr":["udp%3A%2F%2Ftracker.openbittorrent.com%3A80","udp%3A%2F%2Fopen.demonii.com%3A1337","udp%3A%2F%2Ftracker.coppersurfer.tk%3A6969","udp%3A%2F%2Fexodus.desync.com%3A6969"],"infoHash":"07ba2eb44680034647bcf7260c884b107ca35e30","infoHashBuffer":{"type":"Buffer","data":[7,186,46,180,70,128,3,70,71,188,247,38,12,136,75,16,124,163,94,48]},"announce":[],"urlList":[]}}